PathFileType	4	(X/Y/Z)	17_1_7_p0_0-236_filt_butterworth.trc
DataRate	CameraRate	NumFrames	NumMarkers	Units	OrigDataRate	OrigDataStartFrame	OrigNumFrames
59.0	59.0	4	27	m	59.0	0	236
Frame#	Time	RHip			RKnee			RAnkle			RBigToe			RSmallToe			RHeel			LHip			LKnee			LAnkle			LBigToe			LSmallToe			LHeel			Neck			Head			Nose			RShoulder			RElbow			RWrist			RThumb			RIndex			RPinky			LShoulder			LElbow			LWrist			LThumb			LIndex			LPinky			
		X1	Y1	Z1	X2	Y2	Z2	X3	Y3	Z3	X4	Y4	Z4	X5	Y5	Z5	X6	Y6	Z6	X7	Y7	Z7	X8	Y8	Z8	X9	Y9	Z9	X10	Y10	Z10	X11	Y11	Z11	X12	Y12	Z12	X13	Y13	Z13	X14	Y14	Z14	X15	Y15	Z15	X16	Y16	Z16	X17	Y17	Z17	X18	Y18	Z18	X19	Y19	Z19	X20	Y20	Z20	X21	Y21	Z21	X22	Y22	Z22	X23	Y23	Z23	X24	Y24	Z24	X25	Y25	Z25	X26	Y26	Z26	X27	Y27	Z27	
0	0.0	0.2793565606798168	0.45692930813109034	0.8852295444331996	0.2735067857333983	0.6136284677953421	1.3266337611448793	0.2569012892681579	0.7118842019047855	1.7067807413117626	0.29045278384557244	0.5027324382871197	1.7188060529622051	0.3428532389576696	0.5821595469722386	1.7408189849618907	0.22055194086061297	0.777636750925355	1.7764751550730307	0.07348609409902543	0.4332584416129023	0.8785276509380217	0.04944480721473252	0.5594517720357263	1.3130735229988366	0.038759885529004626	0.6801576127159589	1.7226231039499387	0.08137379043186627	0.4567838574929551	1.718777307809299	0.016194706787986672	0.5126364096333659	1.7297722962674371	0.048889755561376105	0.7445138209302606	1.7713837398617094	0.1839001439519335	0.43098187660407816	0.28635963256763797	0.19245156063156915	0.3700740829816832	0.04583925661918189	0.20874959497412543	0.2808407869923801	0.17659029981021973	0.33266136980833333	0.4509577383519875	0.39151567608793025	0.39087227404845387	0.49997288236716814	0.6410612257527999	0.3956225098698837	0.45602142408150054	0.8863028645319309	0.3379677369394121	0.459545495861893	1.0050662190317925	0.3548989871418098	0.44978171109859794	1.0198333267426332	0.35065010666221486	0.5230923072984109	1.03187524489574	0.022020645675704605	0.41881349369332294	0.3827782120548925	-0.017113223692490676	0.41502997448047496	0.6308909602269668	-0.04551034747294327	0.3944511507767975	0.8856780528815111	-0.02223443626371195	0.41865278467623257	0.9993750393812643	-0.04292153780779293	0.38893235272873133	1.0033020948359768	-0.08461707743446133	0.4352323230316017	1.010194971418154
1	0.0169491525423728	0.27947025599193726	0.4572036330352356	0.8862185896056626	0.2712493405468477	0.6125852149076667	1.3249933937045122	0.25734945194518144	0.7119558055455282	1.705078903084961	0.2903066235607144	0.5030134378335858	1.718743295917251	0.34410442562088367	0.5826895455410712	1.739109569862594	0.2201520607954751	0.778553844186551	1.7739800505014167	0.0729760968812842	0.4299186793206223	0.8778316538547009	0.049815169422686364	0.559218265052584	1.3114151451495775	0.04044543731683826	0.6763933785530193	1.7212208073204598	0.08135489840614785	0.45682488675427835	1.7187110754246808	0.016378504697268675	0.5135051967305077	1.7320774618940635	0.051434920205687046	0.7445015630669009	1.7710995641632075	0.18734012199895284	0.4239320260393477	0.2853216704195467	0.19252501541536868	0.36989869062396075	0.04727664231249645	0.20975368051732352	0.2859392155358118	0.17638187853664802	0.33279369853349894	0.4521605843722819	0.3938438990748271	0.3903329136074951	0.501444510564498	0.6413720511960355	0.3934686751661602	0.461053036093882	0.8925643342085755	0.33476439607383024	0.46834973653014733	1.0102861961093639	0.3512771096359115	0.4586198179989436	1.0218922269144928	0.35664913571976276	0.5154296418121825	1.0303033695960968	0.0215205359208794	0.4258633466203405	0.3831828861668985	-0.01657504767971069	0.4156809613625961	0.6334763833433606	-0.04662222828467203	0.40980764293767113	0.8863594364224577	-0.02208791386915934	0.4269256049089422	1.0002543310663254	-0.0526365572681045	0.4140931791174347	1.0105743267334286	-0.08458455246523552	0.44407432320282203	1.0120220918535425
2	0.0338983050847457	0.2794867277664458	0.4571482724358255	0.8863046340687406	0.26979028090645124	0.6104599134117377	1.323335747191107	0.2574875024403015	0.7103494540529945	1.7028434590284005	0.29019942717328745	0.5032167677147519	1.7187610960305313	0.3444259078510625	0.5828492213263372	1.7375366223098336	0.21991123345424327	0.7791593604523033	1.7724415583426925	0.07292051847367388	0.4296533145127043	0.8778059746679373	0.050219543306560706	0.5590056703811133	1.3099356264841222	0.04082383734881011	0.6760288473632322	1.7200031339309376	0.08142082343997799	0.45713509037652605	1.7192384948538009	0.016508863259043507	0.5141698339618708	1.7337370245241428	0.05178008287544915	0.7460395324673849	1.771329068222231	0.18943818117029862	0.4197114027479756	0.2851405932440254	0.193042304967682	0.3699045904297939	0.048079506041233754	0.21095689249100785	0.29221526806990156	0.17613268985576633	0.33289315498063743	0.45290984191470157	0.395254633408377	0.3891141452003427	0.5048230822951796	0.6419676019674393	0.3919615071218546	0.4646997733771991	0.8964580639221955	0.33284505312394314	0.4737489688585322	1.013407622757665	0.34917875698164447	0.4637944134662046	1.0234911661609472	0.359987446915254	0.5093826062047592	1.0293003221676376	0.021740740834928655	0.43084763081583793	0.3834397544617507	-0.01630180817007341	0.4161426227089698	0.6350084486071992	-0.04786135328909109	0.4227624393770005	0.8873384575848549	-0.0219940121287502	0.4323897034647061	1.0006733145161506	-0.05818617333103673	0.4319511026229377	1.0156352545729026	-0.08433561148372054	0.45013725652537384	1.0133457954944087
3	0.0508474576271186	0.2794637025571464	0.45689932988433946	0.8857832476917806	0.2689380180072988	0.6064865980043962	1.3219543749534988	0.2570020267417299	0.7063138039277275	1.7004669866461977	0.29015823891214704	0.5032566924761205	1.7188070113893472	0.3440524382645173	0.5828441828088129	1.7365397654777877	0.2198342310021087	0.7793686023201365	1.771964109175123	0.07318861675073364	0.43146355132675956	0.8782276585534413	0.05048487229203963	0.5588794817730224	1.3090079876906748	0.04019004748243916	0.6781149489350445	1.7192287407071802	0.08160582319114945	0.4578363940852673	1.7207093672535583	0.01661734624969132	0.5146538165342708	1.7349126172535763	0.05031452519389399	0.7472693514905036	1.7709273997897084	0.19008736077844432	0.41853704991092283	0.2855818876726704	0.19425312021767452	0.3702572798333851	0.048360610020130305	0.21215703099899147	0.29849576590380467	0.1759748236006018	0.3331194879626255	0.45318789381060187	0.3957305040772855	0.3874329361983218	0.5095091263172891	0.6427495787363446	0.39094625479823614	0.4674613713876215	0.8979803806979557	0.33224216288586217	0.4750879270835904	1.0141781200011508	0.3486905380554963	0.4650960262641421	1.0242980425253347	0.3602800706862738	0.5044643319619848	1.0287423677797702	0.02241688100018159	0.43426100871271023	0.38358301604501094	-0.016315694513108284	0.4164109678157144	0.6354178826804069	-0.048761108807523365	0.4328091463100641	0.888991842884555	-0.0218319296276262	0.4355995343042471	1.0010796647716518	-0.0593095916463898	0.44065437315279804	1.0180041279228649	-0.08358848356391985	0.45417622929864804	1.0143285031458458
